<svg width="30" height="30" xmlns="http://www.w3.org/2000/svg"><g fill="none" fill-rule="evenodd"><path d="M2.5 15.7V2.5h13.313v11.138h1.5V1.9a.9.9 0 0 0-.9-.9H1.9a.9.9 0 0 0-.9.9v14.4a.9.9 0 0 0 .9.9h11.66v-1.5H2.5zM15.813 2.5v11.138h1.5V1.9a.9.9 0 0 0-.9-.9H1.9a.9.9 0 0 0-.9.9v14.4a.9.9 0 0 0 .9.9h11.66v-1.5H2.5V2.5h13.313z" fill="#0071BC" fill-rule="nonzero"/><rect stroke="#0071BC" stroke-width="1.5" x="13.75" y="13.75" width="14.813" height="14.7" rx=".9"/><g stroke="#0876BF" stroke-width="1.35"><path stroke-linecap="round" stroke-linejoin="round" d="M17.5 25.5l3.625-9 3.625 9"/><path d="M19.478 23.4h3.662" stroke-linecap="square"/></g><path d="M4.5 6.7h9.063M9.031 4v2.541m2.301 6.837S6.312 9.423 6.312 6.7m.454 6.678s5.019-3.955 5.019-6.678" stroke="#026FBE" stroke-linecap="round" stroke-width="1.35"/></g></svg>